<?xml version="1.0" encoding="UTF-8"?>
<svg width="276px" height="123px" viewBox="0 0 276 123" version="1.1" xmlns="http://www.w3.org/2000/svg" xmlns:xlink="http://www.w3.org/1999/xlink">
    <!-- Generator: Sketch 52.6 (67491) - http://www.bohemiancoding.com/sketch -->
    <title>logo</title>
    <desc>Created with Sketch.</desc>
    <g id="Page-1" stroke="none" stroke-width="1" fill="none" fill-rule="evenodd">
        <g id="Group">
            <g id="logo">
                <path d="M19,104 L19,60 L28.3808393,60 C30.4374989,60 32.1898306,60.3089857 33.6378868,60.9269663 C35.0859431,61.5449469 36.2716525,62.3689087 37.1950507,63.3988764 C38.1184489,64.4288441 38.7795081,65.6132892 39.1782483,66.9522472 C39.5769884,68.2912052 39.7763555,69.6816407 39.7763555,71.1235955 L39.7763555,72.7303371 C39.7763555,73.9250996 39.6819184,74.9344528 39.4930415,75.758427 C39.3041646,76.5824011 39.0208535,77.3033677 38.6430997,77.9213483 C37.9295648,79.0749121 36.8382923,80.0636663 35.3692498,80.8876404 C36.880265,81.5880185 37.9925234,82.6179707 38.7060584,83.9775281 C39.4195933,85.3370854 39.7763555,87.1909995 39.7763555,89.5393258 L39.7763555,92.011236 C39.7763555,95.8839145 38.8214921,98.850177 36.9117368,100.910112 C35.0019814,102.970048 31.9485173,104 27.7512528,104 L19,104 Z M25.4217826,83.6067416 L25.4217826,97.6966292 L28.1919633,97.6966292 C29.4931153,97.6966292 30.5109367,97.5112378 31.245458,97.1404494 C31.9799793,96.7696611 32.5361085,96.2546849 32.9138623,95.5955056 C33.2916161,94.9363263 33.5224622,94.1535626 33.6064075,93.247191 C33.6903528,92.3408194 33.7323248,91.3520653 33.7323248,90.2808989 C33.7323248,89.1685338 33.6693668,88.2003787 33.5434488,87.3764045 C33.4175309,86.5524303 33.1656988,85.8520628 32.787945,85.2752809 C32.3682185,84.698499 31.8015963,84.2762186 31.0880614,84.008427 C30.3745264,83.7406354 29.430156,83.6067416 28.254922,83.6067416 L25.4217826,83.6067416 Z M25.4217826,65.9325843 L25.4217826,78.0449438 L28.3178806,78.0449438 C30.4584855,78.0449438 31.8960271,77.5196682 32.6305484,76.4691011 C33.3650697,75.4185341 33.7323248,73.8839052 33.7323248,71.8651685 C33.7323248,69.8876306 33.3230976,68.4044993 32.5046311,67.4157303 C31.6861645,66.4269613 30.2066509,65.9325843 28.066046,65.9325843 L25.4217826,65.9325843 Z M60.3237704,88.6123596 L57.1758377,72.6685393 L57.0499204,72.6685393 L53.9019878,88.6123596 L60.3237704,88.6123596 Z M44.4581898,104 L54.4686157,60 L59.8201012,60 L69.830527,104 L63.4087444,104 L61.5199848,94.5449438 L52.768732,94.5449438 L50.8799725,104 L44.4581898,104 Z M81.6896478,65.9325843 L81.6896478,79.6516854 L85.3412497,79.6516854 C86.4745111,79.6516854 87.3769094,79.4971926 88.0484718,79.1882022 C88.7200341,78.8792119 89.2446843,78.4363325 89.6224381,77.8595506 C89.9582192,77.2827687 90.1890653,76.5721016 90.3149833,75.7275281 C90.4409012,74.8829546 90.5038592,73.9044999 90.5038592,72.7921348 C90.5038592,71.6797697 90.4409012,70.7013151 90.3149833,69.8567416 C90.1890653,69.0121681 89.9372332,68.280902 89.5594794,67.6629213 C88.7619992,66.5093575 87.2510066,65.9325843 85.0264564,65.9325843 L81.6896478,65.9325843 Z M75.2678652,104 L75.2678652,60 L85.5930843,60 C93.14816,60 96.925642,64.3052004 96.925642,72.9157303 C96.925642,75.5112489 96.516415,77.7153467 95.697948,79.5280899 C94.879482,81.340833 93.44194,82.8033652 91.3852804,83.9157303 L98.310732,104 L91.5111977,104 L85.5301256,85.2134831 L81.6896478,85.2134831 L81.6896478,104 L75.2678652,104 Z M107.462631,104 L107.462631,65.9325843 L100.03351,65.9325843 L100.03351,60 L121.313535,60 L121.313535,65.9325843 L113.884414,65.9325843 L113.884414,104 L107.462631,104 Z M126.43608,104 L126.43608,60 L145.57551,60 L145.57551,65.9325843 L132.857862,65.9325843 L132.857862,78.8483146 L143.938585,78.8483146 L143.938585,84.7808989 L132.857862,84.7808989 L132.857862,97.6966292 L145.57551,97.6966292 L145.57551,104 L126.43608,104 Z M151.768352,104 L151.768352,60 L157.9383,60 L167.633933,86.511236 L167.75985,86.511236 L167.75985,60 L174.181633,60 L174.181633,104 L168.137602,104 L158.316052,77.5505618 L158.190135,77.5505618 L158.190135,104 L151.768352,104 Z M182.263234,104 L182.263234,60 L191.769991,60 C195.463584,60 198.265216,60.9887542 200.174971,62.9662921 C202.084726,64.9438301 203.03959,67.7453002 203.03959,71.3707865 L203.03959,91.9494382 C203.03959,96.069309 202.021768,99.107668 199.986095,101.064607 C197.950422,103.021545 195.022874,104 191.203363,104 L182.263234,104 Z M188.685017,65.9325843 L188.685017,98.067416 L191.644073,98.067416 C193.448897,98.067416 194.729044,97.6245363 195.484551,96.738764 C196.240059,95.8529918 196.617807,94.4625563 196.617807,92.5674157 L196.617807,71.3707865 C196.617807,69.6404408 196.261045,68.3015029 195.54751,67.3539326 C194.833975,66.4063623 193.532842,65.9325843 191.644073,65.9325843 L188.685017,65.9325843 Z M211.373026,104 L211.373026,60 L230.512456,60 L230.512456,65.9325843 L217.794808,65.9325843 L217.794808,78.8483146 L228.875531,78.8483146 L228.875531,84.7808989 L217.794808,84.7808989 L217.794808,97.6966292 L230.512456,97.6966292 L230.512456,104 L211.373026,104 Z M243.378916,65.9325843 L243.378916,79.6516854 L247.030517,79.6516854 C248.163779,79.6516854 249.066177,79.4971926 249.73774,79.1882022 C250.409302,78.8792119 250.933952,78.4363325 251.311706,77.8595506 C251.647487,77.2827687 251.878333,76.5721016 252.004251,75.7275281 C252.130169,74.8829546 252.193127,73.9044999 252.193127,72.7921348 C252.193127,71.6797697 252.130169,70.7013151 252.004251,69.8567416 C251.878333,69.0121681 251.626501,68.280902 251.248747,67.6629213 C250.451267,66.5093575 248.940274,65.9325843 246.715724,65.9325843 L243.378916,65.9325843 Z M236.957133,104 L236.957133,60 L247.282352,60 C254.837428,60 258.61491,64.3052004 258.61491,72.9157303 C258.61491,75.5112489 258.205682,77.7153467 257.387216,79.5280899 C256.568749,81.340833 255.131208,82.8033652 253.074548,83.9157303 L260,104 L253.200465,104 L247.219393,85.2134831 L243.378916,85.2134831 L243.378916,104 L236.957133,104 Z" id="BARTENDER" fill="#FD8A5B" fill-rule="nonzero"></path>
                <path d="M270,42 L94.241193,42 C92.584339,42 91.2411928,40.6568542 91.2411928,39 C91.2411928,37.3431458 92.584339,36 94.241193,36 L276,36 L276,123 L0,123 L0,36 L26.9185884,36 C28.5754426,36 29.9185884,37.3431458 29.9185884,39 C29.9185884,40.6568542 28.5754426,42 26.9185884,42 L6,42 L6,117 L270,117 L270,42 Z" id="Combined-Shape" fill="#F4CAB9"></path>
                <path d="M50.2709591,34.8227638 C49.8479127,31.8567209 50.4635102,28.4184723 51.8021395,25.424 C54.2108532,19.992 58.397427,14.224 65.1074153,14 C77.9538885,14 64.8206636,37.296 56.9063185,29.568 C55.0711081,34.944 56.2181146,39.536 60.9208414,39.536 C63.0550577,39.536 65.4524018,38.0738075 68.1128737,35.1494224 C68.0819631,35.7508825 68.075051,36.1931779 68.0921376,36.4763087 C68.1092242,36.7594395 68.1668691,37.2298251 68.2650724,37.8874654 C64.7667895,40.6291551 61.5158079,42 58.5121277,42 C54.4128568,42 52.0015623,40.0267637 50.8885881,37.2111673 C49.1562574,39.6958673 46.6098796,42 43.0275394,42 C37.2351564,42 37.7513094,35.504 39.8732715,29.4 C41.3070296,25.2 43.658393,20.776 45.7803551,17.36 C44.002495,17.248 38.6689146,22.008 33.8514872,26.6 C30.8119198,32.312 30.2169915,40.1961842 28.2446632,41.5640033 C26.272335,42.9318224 21.0623643,40.432 23.7578296,33.6 C26.0518427,28 37.4072074,4.032 37.1778061,0 C39.2424179,0 42.6260872,1.344 43.5436924,2.8 C43.6010427,5.936 37.1778061,18.984 35.1705447,22.792 C37.6366087,20.272 43.830444,14 45.6656545,14 C48.0170179,14.224 50.13898,15.512 51.8594898,17.976 C51.5727381,19.376 41.1349787,38.136 46.3538584,37.968 C48.004488,37.9035294 49.3320656,36.317498 50.2709591,34.8227638 Z M65.3941669,16.912 C63.1001538,16.856 59.7738349,21.84 57.4224715,28.336 C62.1251983,32.928 70.2689447,16.912 65.3941669,16.912 Z M76.5201303,37.912 C78.0685891,37.856 80.1905512,35.392 81.911061,32.872 C82.1978127,32.48 82.4845643,32.144 82.7139656,31.864 C83.2874689,29.288 84.0903735,26.992 85.1800297,24.36 C86.5564375,21.056 88.5636989,16.744 89.4813042,15.288 C90.3415591,14 90.7430114,13.944 91.1444637,13.944 C92.578222,13.944 94.814885,15.008 96.535394,16.856 C94.929585,18.76 93.266426,21.448 92.17677,23.912 C90.3989094,27.888 88.8504506,32.704 87.9901957,36.904 C87.703444,38.024 87.4740427,39.536 87.3019918,40.656 C88.8034832,39.8880227 90.7383337,38.333535 93.106543,35.992537 L97,41.944 C94.302389,41.8561278 92.425037,41.8561278 91.3679451,41.944 C89.4904426,42.1000699 88.0279006,42.386085 86.9578898,43.008 C86.2123355,47.6 85.5241316,51.856 82.4845643,54.152 C80.7067042,55.552 79.3876467,56 76.3480793,56 C72.3335565,56 69.7527917,52.136 70.7277473,46.648 C73.5952636,46.424 77.9538885,44.968 80.8214048,43.68 C81.1655068,41.496 81.3949081,39.312 81.7390101,37.128 C79.7317486,39.648 76.8068819,41.944 73.1938114,41.944 C67.4014283,41.944 67.0573264,35.28 69.5807408,29.4 C70.8997983,26.32 75.5451748,15.288 76.3480793,13.944 C78.2979904,13.944 81.6816597,15.68 81.911061,17.528 C81.5096087,19.04 71.3012506,38.136 76.5201303,37.912 Z M80.1905512,45.584 C78.8141434,46.592 74.1687669,47.992 72.3335565,48.216 C73.7099643,53.648 78.5847421,49.952 80.1905512,45.584 Z" id="hey" fill="#F4CAB9" fill-rule="nonzero"></path>
            </g>
        </g>
    </g>
</svg>